<svg width="21" height="20" viewBox="0 0 21 20" fill="none" xmlns="http://www.w3.org/2000/svg">
<path fill-rule="evenodd" clip-rule="evenodd" d="M3.1429 11.144C2.83535 12.0512 2.22148 12.6837 1.67394 13.2479C1.03296 13.9083 0.482884 14.4751 0.621575 15.2792C0.824475 16.4555 2.36788 16.4416 3.23714 16.4337L6.79543 16.4325C6.92153 18.3687 8.53192 19.9001 10.5 19.9001C12.468 19.9001 14.0784 18.3687 14.2045 16.4325L17.7628 16.4337C18.6321 16.4416 20.1755 16.4555 20.3784 15.2792C20.5171 14.4751 19.967 13.9083 19.326 13.2479C18.7785 12.6837 18.1646 12.0512 17.857 11.144C17.4676 9.9952 17.2756 8.02008 16.935 6.00251C16.44 3.0701 14.46 0.100098 10.5 0.100098C6.53998 0.100098 4.55998 3.0701 4.06498 6.00251C3.73663 7.94764 3.53238 9.9952 3.1429 11.144ZM2.18431 14.8942C2.28355 14.7614 2.45816 14.5705 2.74956 14.2726C3.28232 13.728 4.12799 12.8635 4.54928 11.6208C5.13084 9.90539 5.22932 8.02657 5.52926 6.24969C5.73953 5.00402 6.25585 3.82201 7.06056 2.97356C7.83505 2.15697 8.93182 1.5851 10.5 1.5851C12.0681 1.5851 13.1649 2.15697 13.9394 2.97356C14.7441 3.82201 15.2604 5.00402 15.4707 6.24969C15.772 8.03482 15.8672 9.89962 16.4507 11.6208C16.872 12.8635 17.7176 13.728 18.2504 14.2726C18.5417 14.5705 18.7164 14.7614 18.8156 14.8942C18.4092 14.9728 17.9883 14.9475 17.5769 14.9475H3.42305C3.01162 14.9475 2.59079 14.9728 2.18431 14.8942ZM12.7142 16.4325H8.28579C8.40774 17.5475 9.35254 18.4151 10.5 18.4151C11.6474 18.4151 12.5922 17.5475 12.7142 16.4325Z" fill="#F7F7F7"/>
</svg>
