<svg width="41" height="40" viewBox="0 0 41 40" fill="none" xmlns="http://www.w3.org/2000/svg">
<path d="M36.059 8.45997C36.1284 8.5535 36.1828 8.71709 36.1431 9.01364C36.1031 9.31276 35.9722 9.69975 35.731 10.1738C35.2495 11.12 34.381 12.3122 33.1742 13.6741C30.7661 16.3916 27.083 19.7044 22.6948 22.959C18.3066 26.2137 14.0675 28.7768 10.768 30.2926C9.1145 31.0522 7.72156 31.5372 6.67631 31.7234C6.15269 31.8166 5.74435 31.8296 5.4465 31.7811C5.15121 31.7329 5.01044 31.6334 4.94108 31.5399C4.87171 31.4464 4.81732 31.2828 4.85698 30.9862C4.89699 30.6871 5.02791 30.3001 5.26913 29.8261C5.75064 28.8799 6.61907 27.6877 7.8259 26.3258C10.234 23.6082 13.9171 20.2955 18.3053 17.0408C22.6935 13.7861 26.9326 11.223 30.2321 9.7073C31.8856 8.94769 33.2786 8.46267 34.3238 8.2765C34.8474 8.18325 35.2558 8.17028 35.5536 8.21881C35.8489 8.26693 35.9897 8.36645 36.059 8.45997Z" stroke="#F7F7F7"/>
<circle cx="20.4997" cy="19.9999" r="10.9373" transform="rotate(-36.564 20.4997 19.9999)" stroke="#F7F7F7"/>
</svg>
