<svg width="41" height="40" viewBox="0 0 41 40" fill="none" xmlns="http://www.w3.org/2000/svg">
<path d="M36.0591 8.45991C36.1285 8.55343 36.1828 8.71703 36.1432 9.01358C36.1032 9.31269 35.9723 9.69969 35.731 10.1737C35.2495 11.1199 34.3811 12.3121 33.1743 13.674C30.7662 16.3916 27.0831 19.7043 22.6949 22.959C18.3067 26.2137 14.0676 28.7768 10.7681 30.2925C9.11456 31.0521 7.72162 31.5371 6.67637 31.7233C6.15275 31.8166 5.74441 31.8295 5.44656 31.781C5.15127 31.7329 5.0105 31.6334 4.94114 31.5398C4.87177 31.4463 4.81739 31.2827 4.85704 30.9862C4.89705 30.6871 5.02797 30.3001 5.26919 29.826C5.75071 28.8798 6.61913 27.6876 7.82596 26.3257C10.2341 23.6082 13.9172 20.2955 18.3054 17.0408C22.6936 13.7861 26.9327 11.223 30.2321 9.70724C31.8857 8.94763 33.2786 8.46261 34.3239 8.27644C34.8475 8.18319 35.2558 8.17022 35.5537 8.21875C35.849 8.26687 35.9897 8.36639 36.0591 8.45991Z" stroke="#F7F7F7"/>
<circle cx="20.4997" cy="19.9998" r="10.9373" transform="rotate(-36.564 20.4997 19.9998)" stroke="#F7F7F7"/>
</svg>
