<svg width="32" height="32" viewBox="0 0 32 32" fill="none" xmlns="http://www.w3.org/2000/svg">
<path d="M27.7073 7.31636C27.7352 7.35389 27.7759 7.44283 27.7484 7.64853C27.7206 7.8568 27.6276 8.13674 27.4478 8.48996C27.0892 9.1946 26.438 10.0902 25.5253 11.1203C23.7054 13.1741 20.9179 15.6818 17.5933 18.1476C14.2687 20.6134 11.0598 22.5531 8.56626 23.6986C7.31565 24.2732 6.26956 24.6364 5.49118 24.775C5.101 24.8445 4.80611 24.8523 4.59872 24.8185C4.39389 24.7851 4.32061 24.7203 4.29278 24.6827C4.26494 24.6452 4.22415 24.5563 4.25166 24.3506C4.27951 24.1423 4.37254 23.8623 4.55228 23.5091C4.91086 22.8045 5.56206 21.9088 6.47481 20.8788C8.29474 18.825 11.0823 16.3173 14.4068 13.8515C17.7314 11.3856 20.9403 9.44596 23.4338 8.30044C24.6844 7.72593 25.7305 7.36271 26.5089 7.22408C26.8991 7.15458 27.194 7.14681 27.4014 7.1806C27.6062 7.21398 27.6795 7.27883 27.7073 7.31636Z" stroke="#F7F7F7"/>
<circle cx="15.9999" cy="15.9999" r="8.17721" transform="rotate(-36.564 15.9999 15.9999)" stroke="#F7F7F7"/>
</svg>
