<svg width="21" height="20" viewBox="0 0 21 20" fill="none" xmlns="http://www.w3.org/2000/svg">
<g opacity="0.5" clip-path="url(#clip0_1_445)">
<path d="M9.3 3C12.5033 3 15.1 5.59675 15.1 8.8C15.1 10.113 14.6637 11.324 13.9282 12.2962L17.2657 15.6343C17.5781 15.9467 17.5781 16.4533 17.2657 16.7657C16.9533 17.0781 16.4467 17.0781 16.1343 16.7657L12.7962 13.4282C11.824 14.1637 10.613 14.6 9.3 14.6C6.09675 14.6 3.5 12.0033 3.5 8.8C3.5 5.59675 6.09675 3 9.3 3ZM9.3 4.6C6.9804 4.6 5.1 6.4804 5.1 8.8C5.1 11.1196 6.9804 13 9.3 13C11.6196 13 13.5 11.1196 13.5 8.8C13.5 6.4804 11.6196 4.6 9.3 4.6Z" fill="#F7F7F7"/>
</g>
<defs>
<clipPath id="clip0_1_445">
<rect width="20" height="20" fill="white" transform="translate(0.5)"/>
</clipPath>
</defs>
</svg>
